<svg xmlns="http://www.w3.org/2000/svg" viewBox="0 0 220 260" role="img" aria-label="Platzhalter-Porträt Markus Hartmann">
<defs><linearGradient id="g" x1="0" y1="0" x2="1" y2="1"><stop offset="0" stop-color="#c2485b"/><stop offset="1" stop-color="#f6b9c4"/></linearGradient></defs>
<rect width="220" height="260" fill="url(#g)"/>
<circle cx="170" cy="50" r="60" fill="#fff" opacity=".12"/><circle cx="30" cy="230" r="70" fill="#fff" opacity=".10"/>

<path d="M20 260c4-52 42-72 90-72s86 20 90 72z" fill="#2f8f8f"/>
<path d="M92 188l18 28 18-28z" fill="#fff" opacity=".9"/>
<rect x="95" y="150" width="30" height="42" rx="12" fill="#c68b64"/>
<ellipse cx="110" cy="112" rx="42" ry="50" fill="#c68b64"/>
<ellipse cx="68" cy="116" rx="7" ry="11" fill="#c68b64"/><ellipse cx="152" cy="116" rx="7" ry="11" fill="#c68b64"/>
<g fill="#1c1c1c"><circle cx="72" cy="78" r="20"/><circle cx="96" cy="62" r="22"/><circle cx="124" cy="62" r="22"/><circle cx="148" cy="78" r="20"/><circle cx="110" cy="56" r="22"/></g>
<ellipse cx="92" cy="106" rx="4" ry="5" fill="#2a2a2a"/><ellipse cx="128" cy="106" rx="4" ry="5" fill="#2a2a2a"/>
<path d="M84 94q8-6 16 0M120 94q8-6 16 0" stroke="#2a2a2a" stroke-width="3" fill="none" stroke-linecap="round" opacity=".7"/>
<g fill="none" stroke="#2a2a2a" stroke-width="3"><circle cx="92" cy="106" r="13"/><circle cx="128" cy="106" r="13"/><path d="M105 106h10"/></g>
<path d="M110 112v14q-5 3-9 1" stroke="#00000030" stroke-width="3" fill="none" stroke-linecap="round"/>
<path d="M96 138q14 12 28 0" stroke="#7a2e2e" stroke-width="4" fill="none" stroke-linecap="round"/>
</svg>